<svg width="334" height="39" viewBox="0 0 334 39" fill="none" xmlns="http://www.w3.org/2000/svg">
<path d="M27.9336 37.5H0.0195312V36.4805C0.863281 36.4805 1.61328 36.4336 2.26953 36.3398C2.92578 36.2227 3.46484 36.0117 3.88672 35.707C4.33203 35.3789 4.67188 34.9219 4.90625 34.3359C5.14062 33.75 5.25781 32.9766 5.25781 32.0156V7.05469C5.25781 6.11719 5.14062 5.35547 4.90625 4.76953C4.67188 4.18359 4.33203 3.73828 3.88672 3.43359C3.46484 3.10547 2.92578 2.88281 2.26953 2.76562C1.61328 2.64844 0.863281 2.58984 0.0195312 2.58984V1.57031H15.6289V2.58984C14.7617 2.58984 14 2.64844 13.3438 2.76562C12.6875 2.88281 12.1367 3.10547 11.6914 3.43359C11.2461 3.73828 10.9062 4.18359 10.6719 4.76953C10.4375 5.35547 10.3203 6.11719 10.3203 7.05469V30.7148C10.3203 31.6055 10.3906 32.3438 10.5312 32.9297C10.6719 33.4922 10.9062 33.9492 11.2344 34.3008C11.5859 34.6289 12.0547 34.8633 12.6406 35.0039C13.2266 35.1211 13.9648 35.1797 14.8555 35.1797H18.4414C20.1758 35.1797 21.6289 35.0859 22.8008 34.8984C23.9727 34.6875 24.9805 34.3125 25.8242 33.7734C26.6914 33.2109 27.4531 32.4375 28.1094 31.4531C28.7656 30.4453 29.4336 29.1445 30.1133 27.5508L31.0273 27.6914L27.9336 37.5ZM68.8302 37.5H41.1973V36.4805C42.3223 36.4805 43.213 36.4102 43.8692 36.2695C44.5489 36.1289 45.0645 35.8711 45.4161 35.4961C45.7677 35.0977 46.002 34.5586 46.1192 33.8789C46.2364 33.1758 46.295 32.2734 46.295 31.1719V7.75781C46.295 6.63281 46.2481 5.73047 46.1544 5.05078C46.0606 4.37109 45.838 3.84375 45.4864 3.46875C45.1348 3.09375 44.6192 2.84766 43.9395 2.73047C43.2598 2.58984 42.3458 2.51953 41.1973 2.51953V1.57031H68.8302L69.252 9.41016H68.2677C67.963 8.26172 67.67 7.3125 67.3887 6.5625C67.1309 5.78906 66.7677 5.17969 66.2989 4.73438C65.8536 4.28906 65.2325 3.97266 64.4356 3.78516C63.6622 3.59766 62.6075 3.50391 61.2716 3.50391H51.3575V17.707H59.2677C60.3692 17.707 61.2481 17.6367 61.9044 17.4961C62.5841 17.332 63.1231 17.0625 63.5216 16.6875C63.9434 16.2891 64.2481 15.7617 64.4356 15.1055C64.6466 14.4258 64.8223 13.5586 64.963 12.5039H65.9473V25.0547H64.963C64.8223 24 64.6466 23.1328 64.4356 22.4531C64.2481 21.7734 63.9552 21.2344 63.5567 20.8359C63.1583 20.4141 62.6192 20.1211 61.9395 19.957C61.2833 19.793 60.3927 19.7109 59.2677 19.7109H51.3575V31.5234C51.3575 32.1797 51.3692 32.7656 51.3927 33.2812C51.4395 33.7734 51.5567 34.1953 51.7442 34.5469C51.9317 34.875 52.2247 35.1328 52.6231 35.3203C53.045 35.4844 53.6309 35.5664 54.3809 35.5664H60.4278C61.9981 35.5664 63.2872 35.4375 64.295 35.1797C65.3028 34.9219 66.17 34.5117 66.8966 33.9492C67.6466 33.3867 68.3145 32.6602 68.9005 31.7695C69.4864 30.8555 70.1427 29.7656 70.8692 28.5H71.9942L68.8302 37.5ZM118.164 19.3594C118.164 21.9141 117.742 24.3398 116.899 26.6367C116.055 28.9336 114.86 30.9609 113.313 32.7188C111.789 34.4531 109.938 35.8359 107.758 36.8672C105.602 37.875 103.188 38.3789 100.516 38.3789C97.8439 38.3789 95.4181 37.875 93.2384 36.8672C91.0822 35.8594 89.2306 34.5 87.6837 32.7891C86.1603 31.0547 84.9884 29.0391 84.1681 26.7422C83.3478 24.4453 82.9377 22.0078 82.9377 19.4297C82.9377 16.8281 83.3712 14.4023 84.2384 12.1523C85.1291 9.87891 86.3712 7.91016 87.965 6.24609C89.5587 4.55859 91.4572 3.23438 93.6603 2.27344C95.8634 1.28906 98.2892 0.796875 100.938 0.796875C103.539 0.796875 105.895 1.30078 108.004 2.30859C110.113 3.29297 111.918 4.64062 113.418 6.35156C114.942 8.03906 116.113 10.0078 116.934 12.2578C117.754 14.5078 118.164 16.875 118.164 19.3594ZM112.117 19.7109C112.117 18.3984 112.047 17.0625 111.906 15.7031C111.789 14.3438 111.567 13.0312 111.238 11.7656C110.91 10.5 110.465 9.31641 109.902 8.21484C109.34 7.11328 108.625 6.15234 107.758 5.33203C106.891 4.51172 105.848 3.86719 104.629 3.39844C103.434 2.90625 102.016 2.66016 100.375 2.66016C98.8752 2.66016 97.5509 2.90625 96.4025 3.39844C95.2775 3.86719 94.2931 4.51172 93.4494 5.33203C92.6056 6.15234 91.9025 7.11328 91.34 8.21484C90.7775 9.31641 90.3205 10.4883 89.9689 11.7305C89.6408 12.9492 89.4064 14.2148 89.2658 15.5273C89.1252 16.8164 89.0548 18.0703 89.0548 19.2891C89.0548 20.4844 89.1252 21.7383 89.2658 23.0508C89.4064 24.3633 89.6525 25.6523 90.0041 26.918C90.3556 28.1836 90.8127 29.3906 91.3752 30.5391C91.9377 31.6875 92.6408 32.6953 93.4845 33.5625C94.3283 34.4297 95.3244 35.1211 96.4728 35.6367C97.6212 36.1523 98.9455 36.4102 100.445 36.4102C102.016 36.4102 103.387 36.1758 104.559 35.707C105.754 35.2383 106.785 34.6055 107.652 33.8086C108.52 32.9883 109.235 32.0391 109.797 30.9609C110.383 29.8594 110.84 28.6992 111.168 27.4805C111.52 26.2383 111.766 24.9609 111.906 23.6484C112.047 22.3125 112.117 21 112.117 19.7109ZM166.619 2.51953C165.494 2.51953 164.592 2.58984 163.912 2.73047C163.233 2.87109 162.705 3.14062 162.33 3.53906C161.979 3.91406 161.744 4.44141 161.627 5.12109C161.533 5.80078 161.487 6.67969 161.487 7.75781V38.0625H160.572L136.807 9.12891V31.2422C136.807 32.3672 136.854 33.2695 136.947 33.9492C137.065 34.6289 137.299 35.1562 137.651 35.5312C138.002 35.9062 138.518 36.1641 139.197 36.3047C139.877 36.4219 140.78 36.4805 141.905 36.4805V37.5H129.389V36.4805C130.514 36.4805 131.405 36.4102 132.061 36.2695C132.74 36.1289 133.256 35.8711 133.608 35.4961C133.959 35.0977 134.194 34.5586 134.311 33.8789C134.428 33.1992 134.487 32.3203 134.487 31.2422V6.24609C134.041 5.63672 133.619 5.10938 133.221 4.66406C132.846 4.19531 132.436 3.80859 131.99 3.50391C131.569 3.17578 131.076 2.92969 130.514 2.76562C129.951 2.60156 129.26 2.51953 128.44 2.51953V1.57031H137.229L159.201 28.5V7.75781C159.201 6.67969 159.143 5.80078 159.026 5.12109C158.908 4.44141 158.662 3.91406 158.287 3.53906C157.936 3.14062 157.42 2.87109 156.74 2.73047C156.084 2.58984 155.194 2.51953 154.069 2.51953V1.57031H166.619V2.51953ZM203.543 11.5195C203.543 13.4648 203.203 15.082 202.524 16.3711C201.867 17.6367 200.965 18.6445 199.817 19.3945C198.668 20.1445 197.321 20.6719 195.774 20.9766C194.25 21.2812 192.633 21.4336 190.922 21.4336C190.172 21.4336 189.422 21.4219 188.672 21.3984C187.946 21.375 187.16 21.293 186.317 21.1523V31.1719C186.317 32.2734 186.375 33.1758 186.492 33.8789C186.633 34.5586 186.879 35.0977 187.231 35.4961C187.606 35.8711 188.133 36.1289 188.813 36.2695C189.492 36.4102 190.395 36.4805 191.52 36.4805V37.5H176.192V36.4805C177.317 36.4805 178.207 36.4102 178.864 36.2695C179.543 36.1289 180.059 35.8711 180.41 35.4961C180.762 35.0977 180.985 34.5586 181.078 33.8789C181.172 33.1758 181.219 32.2734 181.219 31.1719V7.89844C181.219 6.77344 181.172 5.87109 181.078 5.19141C180.985 4.48828 180.762 3.9375 180.41 3.53906C180.082 3.14062 179.578 2.87109 178.899 2.73047C178.242 2.58984 177.34 2.51953 176.192 2.51953V1.57031H189.27C190.887 1.57031 192.539 1.71094 194.227 1.99219C195.938 2.27344 197.473 2.78906 198.832 3.53906C200.215 4.26562 201.34 5.27344 202.207 6.5625C203.098 7.85156 203.543 9.50391 203.543 11.5195ZM197.496 12.0117C197.496 10.8633 197.321 9.78516 196.969 8.77734C196.641 7.74609 196.149 6.85547 195.492 6.10547C194.86 5.35547 194.063 4.75781 193.102 4.3125C192.164 3.86719 191.086 3.64453 189.867 3.64453C189.282 3.64453 188.684 3.70312 188.075 3.82031C187.489 3.9375 186.903 4.05469 186.317 4.17188V19.3594C187.043 19.4766 187.77 19.5703 188.496 19.6406C189.223 19.6875 189.961 19.7109 190.711 19.7109C191.766 19.7109 192.703 19.5 193.524 19.0781C194.367 18.6328 195.082 18.0586 195.668 17.3555C196.254 16.6289 196.7 15.8086 197.004 14.8945C197.332 13.957 197.496 12.9961 197.496 12.0117ZM242.26 37.5H214.346V36.4805C215.19 36.4805 215.94 36.4336 216.596 36.3398C217.252 36.2227 217.791 36.0117 218.213 35.707C218.659 35.3789 218.998 34.9219 219.233 34.3359C219.467 33.75 219.584 32.9766 219.584 32.0156V7.05469C219.584 6.11719 219.467 5.35547 219.233 4.76953C218.998 4.18359 218.659 3.73828 218.213 3.43359C217.791 3.10547 217.252 2.88281 216.596 2.76562C215.94 2.64844 215.19 2.58984 214.346 2.58984V1.57031H229.955V2.58984C229.088 2.58984 228.327 2.64844 227.67 2.76562C227.014 2.88281 226.463 3.10547 226.018 3.43359C225.573 3.73828 225.233 4.18359 224.998 4.76953C224.764 5.35547 224.647 6.11719 224.647 7.05469V30.7148C224.647 31.6055 224.717 32.3438 224.858 32.9297C224.998 33.4922 225.233 33.9492 225.561 34.3008C225.913 34.6289 226.381 34.8633 226.967 35.0039C227.553 35.1211 228.291 35.1797 229.182 35.1797H232.768C234.502 35.1797 235.955 35.0859 237.127 34.8984C238.299 34.6875 239.307 34.3125 240.151 33.7734C241.018 33.2109 241.78 32.4375 242.436 31.4531C243.092 30.4453 243.76 29.1445 244.44 27.5508L245.354 27.6914L242.26 37.5ZM291.454 19.3594C291.454 21.9141 291.032 24.3398 290.188 26.6367C289.344 28.9336 288.149 30.9609 286.602 32.7188C285.079 34.4531 283.227 35.8359 281.047 36.8672C278.891 37.875 276.477 38.3789 273.805 38.3789C271.133 38.3789 268.708 37.875 266.528 36.8672C264.372 35.8594 262.52 34.5 260.973 32.7891C259.45 31.0547 258.278 29.0391 257.458 26.7422C256.637 24.4453 256.227 22.0078 256.227 19.4297C256.227 16.8281 256.661 14.4023 257.528 12.1523C258.418 9.87891 259.661 7.91016 261.254 6.24609C262.848 4.55859 264.747 3.23438 266.95 2.27344C269.153 1.28906 271.579 0.796875 274.227 0.796875C276.829 0.796875 279.184 1.30078 281.293 2.30859C283.403 3.29297 285.208 4.64062 286.708 6.35156C288.231 8.03906 289.403 10.0078 290.223 12.2578C291.043 14.5078 291.454 16.875 291.454 19.3594ZM285.407 19.7109C285.407 18.3984 285.336 17.0625 285.196 15.7031C285.079 14.3438 284.856 13.0312 284.528 11.7656C284.2 10.5 283.754 9.31641 283.192 8.21484C282.629 7.11328 281.915 6.15234 281.047 5.33203C280.18 4.51172 279.137 3.86719 277.918 3.39844C276.723 2.90625 275.305 2.66016 273.665 2.66016C272.165 2.66016 270.84 2.90625 269.692 3.39844C268.567 3.86719 267.583 4.51172 266.739 5.33203C265.895 6.15234 265.192 7.11328 264.629 8.21484C264.067 9.31641 263.61 10.4883 263.258 11.7305C262.93 12.9492 262.696 14.2148 262.555 15.5273C262.415 16.8164 262.344 18.0703 262.344 19.2891C262.344 20.4844 262.415 21.7383 262.555 23.0508C262.696 24.3633 262.942 25.6523 263.293 26.918C263.645 28.1836 264.102 29.3906 264.665 30.5391C265.227 31.6875 265.93 32.6953 266.774 33.5625C267.618 34.4297 268.614 35.1211 269.762 35.6367C270.911 36.1523 272.235 36.4102 273.735 36.4102C275.305 36.4102 276.676 36.1758 277.848 35.707C279.043 35.2383 280.075 34.6055 280.942 33.8086C281.809 32.9883 282.524 32.0391 283.086 30.9609C283.672 29.8594 284.129 28.6992 284.458 27.4805C284.809 26.2383 285.055 24.9609 285.196 23.6484C285.336 22.3125 285.407 21 285.407 19.7109ZM332.104 10.0078C331.893 7.96875 331.272 6.43359 330.241 5.40234C329.21 4.34766 327.628 3.82031 325.495 3.82031H320.467V31.2422C320.467 32.3438 320.514 33.2344 320.608 33.9141C320.702 34.5938 320.924 35.1328 321.276 35.5312C321.628 35.9062 322.131 36.1641 322.788 36.3047C323.467 36.4219 324.37 36.4805 325.495 36.4805V37.5H310.307V36.4805C311.432 36.4805 312.323 36.4102 312.979 36.2695C313.635 36.1289 314.139 35.8711 314.491 35.4961C314.842 35.0977 315.065 34.5586 315.159 33.8789C315.276 33.1992 315.335 32.3203 315.335 31.2422V3.82031H311.01C309.885 3.82031 308.901 3.92578 308.057 4.13672C307.213 4.32422 306.499 4.65234 305.913 5.12109C305.35 5.58984 304.905 6.22266 304.577 7.01953C304.272 7.81641 304.073 8.8125 303.979 10.0078H302.749L303.1 1.57031H332.913L333.264 10.0078H332.104Z" fill="#E9CF8C"/>
<path d="M27.9336 37.5H0.0195312V36.4805C0.863281 36.4805 1.61328 36.4336 2.26953 36.3398C2.92578 36.2227 3.46484 36.0117 3.88672 35.707C4.33203 35.3789 4.67188 34.9219 4.90625 34.3359C5.14062 33.75 5.25781 32.9766 5.25781 32.0156V7.05469C5.25781 6.11719 5.14062 5.35547 4.90625 4.76953C4.67188 4.18359 4.33203 3.73828 3.88672 3.43359C3.46484 3.10547 2.92578 2.88281 2.26953 2.76562C1.61328 2.64844 0.863281 2.58984 0.0195312 2.58984V1.57031H15.6289V2.58984C14.7617 2.58984 14 2.64844 13.3438 2.76562C12.6875 2.88281 12.1367 3.10547 11.6914 3.43359C11.2461 3.73828 10.9062 4.18359 10.6719 4.76953C10.4375 5.35547 10.3203 6.11719 10.3203 7.05469V30.7148C10.3203 31.6055 10.3906 32.3438 10.5312 32.9297C10.6719 33.4922 10.9062 33.9492 11.2344 34.3008C11.5859 34.6289 12.0547 34.8633 12.6406 35.0039C13.2266 35.1211 13.9648 35.1797 14.8555 35.1797H18.4414C20.1758 35.1797 21.6289 35.0859 22.8008 34.8984C23.9727 34.6875 24.9805 34.3125 25.8242 33.7734C26.6914 33.2109 27.4531 32.4375 28.1094 31.4531C28.7656 30.4453 29.4336 29.1445 30.1133 27.5508L31.0273 27.6914L27.9336 37.5ZM68.8302 37.5H41.1973V36.4805C42.3223 36.4805 43.213 36.4102 43.8692 36.2695C44.5489 36.1289 45.0645 35.8711 45.4161 35.4961C45.7677 35.0977 46.002 34.5586 46.1192 33.8789C46.2364 33.1758 46.295 32.2734 46.295 31.1719V7.75781C46.295 6.63281 46.2481 5.73047 46.1544 5.05078C46.0606 4.37109 45.838 3.84375 45.4864 3.46875C45.1348 3.09375 44.6192 2.84766 43.9395 2.73047C43.2598 2.58984 42.3458 2.51953 41.1973 2.51953V1.57031H68.8302L69.252 9.41016H68.2677C67.963 8.26172 67.67 7.3125 67.3887 6.5625C67.1309 5.78906 66.7677 5.17969 66.2989 4.73438C65.8536 4.28906 65.2325 3.97266 64.4356 3.78516C63.6622 3.59766 62.6075 3.50391 61.2716 3.50391H51.3575V17.707H59.2677C60.3692 17.707 61.2481 17.6367 61.9044 17.4961C62.5841 17.332 63.1231 17.0625 63.5216 16.6875C63.9434 16.2891 64.2481 15.7617 64.4356 15.1055C64.6466 14.4258 64.8223 13.5586 64.963 12.5039H65.9473V25.0547H64.963C64.8223 24 64.6466 23.1328 64.4356 22.4531C64.2481 21.7734 63.9552 21.2344 63.5567 20.8359C63.1583 20.4141 62.6192 20.1211 61.9395 19.957C61.2833 19.793 60.3927 19.7109 59.2677 19.7109H51.3575V31.5234C51.3575 32.1797 51.3692 32.7656 51.3927 33.2812C51.4395 33.7734 51.5567 34.1953 51.7442 34.5469C51.9317 34.875 52.2247 35.1328 52.6231 35.3203C53.045 35.4844 53.6309 35.5664 54.3809 35.5664H60.4278C61.9981 35.5664 63.2872 35.4375 64.295 35.1797C65.3028 34.9219 66.17 34.5117 66.8966 33.9492C67.6466 33.3867 68.3145 32.6602 68.9005 31.7695C69.4864 30.8555 70.1427 29.7656 70.8692 28.5H71.9942L68.8302 37.5ZM118.164 19.3594C118.164 21.9141 117.742 24.3398 116.899 26.6367C116.055 28.9336 114.86 30.9609 113.313 32.7188C111.789 34.4531 109.938 35.8359 107.758 36.8672C105.602 37.875 103.188 38.3789 100.516 38.3789C97.8439 38.3789 95.4181 37.875 93.2384 36.8672C91.0822 35.8594 89.2306 34.5 87.6837 32.7891C86.1603 31.0547 84.9884 29.0391 84.1681 26.7422C83.3478 24.4453 82.9377 22.0078 82.9377 19.4297C82.9377 16.8281 83.3712 14.4023 84.2384 12.1523C85.1291 9.87891 86.3712 7.91016 87.965 6.24609C89.5587 4.55859 91.4572 3.23438 93.6603 2.27344C95.8634 1.28906 98.2892 0.796875 100.938 0.796875C103.539 0.796875 105.895 1.30078 108.004 2.30859C110.113 3.29297 111.918 4.64062 113.418 6.35156C114.942 8.03906 116.113 10.0078 116.934 12.2578C117.754 14.5078 118.164 16.875 118.164 19.3594ZM112.117 19.7109C112.117 18.3984 112.047 17.0625 111.906 15.7031C111.789 14.3438 111.567 13.0312 111.238 11.7656C110.91 10.5 110.465 9.31641 109.902 8.21484C109.34 7.11328 108.625 6.15234 107.758 5.33203C106.891 4.51172 105.848 3.86719 104.629 3.39844C103.434 2.90625 102.016 2.66016 100.375 2.66016C98.8752 2.66016 97.5509 2.90625 96.4025 3.39844C95.2775 3.86719 94.2931 4.51172 93.4494 5.33203C92.6056 6.15234 91.9025 7.11328 91.34 8.21484C90.7775 9.31641 90.3205 10.4883 89.9689 11.7305C89.6408 12.9492 89.4064 14.2148 89.2658 15.5273C89.1252 16.8164 89.0548 18.0703 89.0548 19.2891C89.0548 20.4844 89.1252 21.7383 89.2658 23.0508C89.4064 24.3633 89.6525 25.6523 90.0041 26.918C90.3556 28.1836 90.8127 29.3906 91.3752 30.5391C91.9377 31.6875 92.6408 32.6953 93.4845 33.5625C94.3283 34.4297 95.3244 35.1211 96.4728 35.6367C97.6212 36.1523 98.9455 36.4102 100.445 36.4102C102.016 36.4102 103.387 36.1758 104.559 35.707C105.754 35.2383 106.785 34.6055 107.652 33.8086C108.52 32.9883 109.235 32.0391 109.797 30.9609C110.383 29.8594 110.84 28.6992 111.168 27.4805C111.52 26.2383 111.766 24.9609 111.906 23.6484C112.047 22.3125 112.117 21 112.117 19.7109ZM166.619 2.51953C165.494 2.51953 164.592 2.58984 163.912 2.73047C163.233 2.87109 162.705 3.14062 162.33 3.53906C161.979 3.91406 161.744 4.44141 161.627 5.12109C161.533 5.80078 161.487 6.67969 161.487 7.75781V38.0625H160.572L136.807 9.12891V31.2422C136.807 32.3672 136.854 33.2695 136.947 33.9492C137.065 34.6289 137.299 35.1562 137.651 35.5312C138.002 35.9062 138.518 36.1641 139.197 36.3047C139.877 36.4219 140.78 36.4805 141.905 36.4805V37.5H129.389V36.4805C130.514 36.4805 131.405 36.4102 132.061 36.2695C132.74 36.1289 133.256 35.8711 133.608 35.4961C133.959 35.0977 134.194 34.5586 134.311 33.8789C134.428 33.1992 134.487 32.3203 134.487 31.2422V6.24609C134.041 5.63672 133.619 5.10938 133.221 4.66406C132.846 4.19531 132.436 3.80859 131.99 3.50391C131.569 3.17578 131.076 2.92969 130.514 2.76562C129.951 2.60156 129.26 2.51953 128.44 2.51953V1.57031H137.229L159.201 28.5V7.75781C159.201 6.67969 159.143 5.80078 159.026 5.12109C158.908 4.44141 158.662 3.91406 158.287 3.53906C157.936 3.14062 157.42 2.87109 156.74 2.73047C156.084 2.58984 155.194 2.51953 154.069 2.51953V1.57031H166.619V2.51953ZM203.543 11.5195C203.543 13.4648 203.203 15.082 202.524 16.3711C201.867 17.6367 200.965 18.6445 199.817 19.3945C198.668 20.1445 197.321 20.6719 195.774 20.9766C194.25 21.2812 192.633 21.4336 190.922 21.4336C190.172 21.4336 189.422 21.4219 188.672 21.3984C187.946 21.375 187.16 21.293 186.317 21.1523V31.1719C186.317 32.2734 186.375 33.1758 186.492 33.8789C186.633 34.5586 186.879 35.0977 187.231 35.4961C187.606 35.8711 188.133 36.1289 188.813 36.2695C189.492 36.4102 190.395 36.4805 191.52 36.4805V37.5H176.192V36.4805C177.317 36.4805 178.207 36.4102 178.864 36.2695C179.543 36.1289 180.059 35.8711 180.41 35.4961C180.762 35.0977 180.985 34.5586 181.078 33.8789C181.172 33.1758 181.219 32.2734 181.219 31.1719V7.89844C181.219 6.77344 181.172 5.87109 181.078 5.19141C180.985 4.48828 180.762 3.9375 180.41 3.53906C180.082 3.14062 179.578 2.87109 178.899 2.73047C178.242 2.58984 177.34 2.51953 176.192 2.51953V1.57031H189.27C190.887 1.57031 192.539 1.71094 194.227 1.99219C195.938 2.27344 197.473 2.78906 198.832 3.53906C200.215 4.26562 201.34 5.27344 202.207 6.5625C203.098 7.85156 203.543 9.50391 203.543 11.5195ZM197.496 12.0117C197.496 10.8633 197.321 9.78516 196.969 8.77734C196.641 7.74609 196.149 6.85547 195.492 6.10547C194.86 5.35547 194.063 4.75781 193.102 4.3125C192.164 3.86719 191.086 3.64453 189.867 3.64453C189.282 3.64453 188.684 3.70312 188.075 3.82031C187.489 3.9375 186.903 4.05469 186.317 4.17188V19.3594C187.043 19.4766 187.77 19.5703 188.496 19.6406C189.223 19.6875 189.961 19.7109 190.711 19.7109C191.766 19.7109 192.703 19.5 193.524 19.0781C194.367 18.6328 195.082 18.0586 195.668 17.3555C196.254 16.6289 196.7 15.8086 197.004 14.8945C197.332 13.957 197.496 12.9961 197.496 12.0117ZM242.26 37.5H214.346V36.4805C215.19 36.4805 215.94 36.4336 216.596 36.3398C217.252 36.2227 217.791 36.0117 218.213 35.707C218.659 35.3789 218.998 34.9219 219.233 34.3359C219.467 33.75 219.584 32.9766 219.584 32.0156V7.05469C219.584 6.11719 219.467 5.35547 219.233 4.76953C218.998 4.18359 218.659 3.73828 218.213 3.43359C217.791 3.10547 217.252 2.88281 216.596 2.76562C215.94 2.64844 215.19 2.58984 214.346 2.58984V1.57031H229.955V2.58984C229.088 2.58984 228.327 2.64844 227.67 2.76562C227.014 2.88281 226.463 3.10547 226.018 3.43359C225.573 3.73828 225.233 4.18359 224.998 4.76953C224.764 5.35547 224.647 6.11719 224.647 7.05469V30.7148C224.647 31.6055 224.717 32.3438 224.858 32.9297C224.998 33.4922 225.233 33.9492 225.561 34.3008C225.913 34.6289 226.381 34.8633 226.967 35.0039C227.553 35.1211 228.291 35.1797 229.182 35.1797H232.768C234.502 35.1797 235.955 35.0859 237.127 34.8984C238.299 34.6875 239.307 34.3125 240.151 33.7734C241.018 33.2109 241.78 32.4375 242.436 31.4531C243.092 30.4453 243.76 29.1445 244.44 27.5508L245.354 27.6914L242.26 37.5ZM291.454 19.3594C291.454 21.9141 291.032 24.3398 290.188 26.6367C289.344 28.9336 288.149 30.9609 286.602 32.7188C285.079 34.4531 283.227 35.8359 281.047 36.8672C278.891 37.875 276.477 38.3789 273.805 38.3789C271.133 38.3789 268.708 37.875 266.528 36.8672C264.372 35.8594 262.52 34.5 260.973 32.7891C259.45 31.0547 258.278 29.0391 257.458 26.7422C256.637 24.4453 256.227 22.0078 256.227 19.4297C256.227 16.8281 256.661 14.4023 257.528 12.1523C258.418 9.87891 259.661 7.91016 261.254 6.24609C262.848 4.55859 264.747 3.23438 266.95 2.27344C269.153 1.28906 271.579 0.796875 274.227 0.796875C276.829 0.796875 279.184 1.30078 281.293 2.30859C283.403 3.29297 285.208 4.64062 286.708 6.35156C288.231 8.03906 289.403 10.0078 290.223 12.2578C291.043 14.5078 291.454 16.875 291.454 19.3594ZM285.407 19.7109C285.407 18.3984 285.336 17.0625 285.196 15.7031C285.079 14.3438 284.856 13.0312 284.528 11.7656C284.2 10.5 283.754 9.31641 283.192 8.21484C282.629 7.11328 281.915 6.15234 281.047 5.33203C280.18 4.51172 279.137 3.86719 277.918 3.39844C276.723 2.90625 275.305 2.66016 273.665 2.66016C272.165 2.66016 270.84 2.90625 269.692 3.39844C268.567 3.86719 267.583 4.51172 266.739 5.33203C265.895 6.15234 265.192 7.11328 264.629 8.21484C264.067 9.31641 263.61 10.4883 263.258 11.7305C262.93 12.9492 262.696 14.2148 262.555 15.5273C262.415 16.8164 262.344 18.0703 262.344 19.2891C262.344 20.4844 262.415 21.7383 262.555 23.0508C262.696 24.3633 262.942 25.6523 263.293 26.918C263.645 28.1836 264.102 29.3906 264.665 30.5391C265.227 31.6875 265.93 32.6953 266.774 33.5625C267.618 34.4297 268.614 35.1211 269.762 35.6367C270.911 36.1523 272.235 36.4102 273.735 36.4102C275.305 36.4102 276.676 36.1758 277.848 35.707C279.043 35.2383 280.075 34.6055 280.942 33.8086C281.809 32.9883 282.524 32.0391 283.086 30.9609C283.672 29.8594 284.129 28.6992 284.458 27.4805C284.809 26.2383 285.055 24.9609 285.196 23.6484C285.336 22.3125 285.407 21 285.407 19.7109ZM332.104 10.0078C331.893 7.96875 331.272 6.43359 330.241 5.40234C329.21 4.34766 327.628 3.82031 325.495 3.82031H320.467V31.2422C320.467 32.3438 320.514 33.2344 320.608 33.9141C320.702 34.5938 320.924 35.1328 321.276 35.5312C321.628 35.9062 322.131 36.1641 322.788 36.3047C323.467 36.4219 324.37 36.4805 325.495 36.4805V37.5H310.307V36.4805C311.432 36.4805 312.323 36.4102 312.979 36.2695C313.635 36.1289 314.139 35.8711 314.491 35.4961C314.842 35.0977 315.065 34.5586 315.159 33.8789C315.276 33.1992 315.335 32.3203 315.335 31.2422V3.82031H311.01C309.885 3.82031 308.901 3.92578 308.057 4.13672C307.213 4.32422 306.499 4.65234 305.913 5.12109C305.35 5.58984 304.905 6.22266 304.577 7.01953C304.272 7.81641 304.073 8.8125 303.979 10.0078H302.749L303.1 1.57031H332.913L333.264 10.0078H332.104Z" fill="url(#paint0_linear_7_16)" fill-opacity="0.69"/>
<path d="M27.9336 37.5H0.0195312V36.4805C0.863281 36.4805 1.61328 36.4336 2.26953 36.3398C2.92578 36.2227 3.46484 36.0117 3.88672 35.707C4.33203 35.3789 4.67188 34.9219 4.90625 34.3359C5.14062 33.75 5.25781 32.9766 5.25781 32.0156V7.05469C5.25781 6.11719 5.14062 5.35547 4.90625 4.76953C4.67188 4.18359 4.33203 3.73828 3.88672 3.43359C3.46484 3.10547 2.92578 2.88281 2.26953 2.76562C1.61328 2.64844 0.863281 2.58984 0.0195312 2.58984V1.57031H15.6289V2.58984C14.7617 2.58984 14 2.64844 13.3438 2.76562C12.6875 2.88281 12.1367 3.10547 11.6914 3.43359C11.2461 3.73828 10.9062 4.18359 10.6719 4.76953C10.4375 5.35547 10.3203 6.11719 10.3203 7.05469V30.7148C10.3203 31.6055 10.3906 32.3438 10.5312 32.9297C10.6719 33.4922 10.9062 33.9492 11.2344 34.3008C11.5859 34.6289 12.0547 34.8633 12.6406 35.0039C13.2266 35.1211 13.9648 35.1797 14.8555 35.1797H18.4414C20.1758 35.1797 21.6289 35.0859 22.8008 34.8984C23.9727 34.6875 24.9805 34.3125 25.8242 33.7734C26.6914 33.2109 27.4531 32.4375 28.1094 31.4531C28.7656 30.4453 29.4336 29.1445 30.1133 27.5508L31.0273 27.6914L27.9336 37.5ZM68.8302 37.5H41.1973V36.4805C42.3223 36.4805 43.213 36.4102 43.8692 36.2695C44.5489 36.1289 45.0645 35.8711 45.4161 35.4961C45.7677 35.0977 46.002 34.5586 46.1192 33.8789C46.2364 33.1758 46.295 32.2734 46.295 31.1719V7.75781C46.295 6.63281 46.2481 5.73047 46.1544 5.05078C46.0606 4.37109 45.838 3.84375 45.4864 3.46875C45.1348 3.09375 44.6192 2.84766 43.9395 2.73047C43.2598 2.58984 42.3458 2.51953 41.1973 2.51953V1.57031H68.8302L69.252 9.41016H68.2677C67.963 8.26172 67.67 7.3125 67.3887 6.5625C67.1309 5.78906 66.7677 5.17969 66.2989 4.73438C65.8536 4.28906 65.2325 3.97266 64.4356 3.78516C63.6622 3.59766 62.6075 3.50391 61.2716 3.50391H51.3575V17.707H59.2677C60.3692 17.707 61.2481 17.6367 61.9044 17.4961C62.5841 17.332 63.1231 17.0625 63.5216 16.6875C63.9434 16.2891 64.2481 15.7617 64.4356 15.1055C64.6466 14.4258 64.8223 13.5586 64.963 12.5039H65.9473V25.0547H64.963C64.8223 24 64.6466 23.1328 64.4356 22.4531C64.2481 21.7734 63.9552 21.2344 63.5567 20.8359C63.1583 20.4141 62.6192 20.1211 61.9395 19.957C61.2833 19.793 60.3927 19.7109 59.2677 19.7109H51.3575V31.5234C51.3575 32.1797 51.3692 32.7656 51.3927 33.2812C51.4395 33.7734 51.5567 34.1953 51.7442 34.5469C51.9317 34.875 52.2247 35.1328 52.6231 35.3203C53.045 35.4844 53.6309 35.5664 54.3809 35.5664H60.4278C61.9981 35.5664 63.2872 35.4375 64.295 35.1797C65.3028 34.9219 66.17 34.5117 66.8966 33.9492C67.6466 33.3867 68.3145 32.6602 68.9005 31.7695C69.4864 30.8555 70.1427 29.7656 70.8692 28.5H71.9942L68.8302 37.5ZM118.164 19.3594C118.164 21.9141 117.742 24.3398 116.899 26.6367C116.055 28.9336 114.86 30.9609 113.313 32.7188C111.789 34.4531 109.938 35.8359 107.758 36.8672C105.602 37.875 103.188 38.3789 100.516 38.3789C97.8439 38.3789 95.4181 37.875 93.2384 36.8672C91.0822 35.8594 89.2306 34.5 87.6837 32.7891C86.1603 31.0547 84.9884 29.0391 84.1681 26.7422C83.3478 24.4453 82.9377 22.0078 82.9377 19.4297C82.9377 16.8281 83.3712 14.4023 84.2384 12.1523C85.1291 9.87891 86.3712 7.91016 87.965 6.24609C89.5587 4.55859 91.4572 3.23438 93.6603 2.27344C95.8634 1.28906 98.2892 0.796875 100.938 0.796875C103.539 0.796875 105.895 1.30078 108.004 2.30859C110.113 3.29297 111.918 4.64062 113.418 6.35156C114.942 8.03906 116.113 10.0078 116.934 12.2578C117.754 14.5078 118.164 16.875 118.164 19.3594ZM112.117 19.7109C112.117 18.3984 112.047 17.0625 111.906 15.7031C111.789 14.3438 111.567 13.0312 111.238 11.7656C110.91 10.5 110.465 9.31641 109.902 8.21484C109.34 7.11328 108.625 6.15234 107.758 5.33203C106.891 4.51172 105.848 3.86719 104.629 3.39844C103.434 2.90625 102.016 2.66016 100.375 2.66016C98.8752 2.66016 97.5509 2.90625 96.4025 3.39844C95.2775 3.86719 94.2931 4.51172 93.4494 5.33203C92.6056 6.15234 91.9025 7.11328 91.34 8.21484C90.7775 9.31641 90.3205 10.4883 89.9689 11.7305C89.6408 12.9492 89.4064 14.2148 89.2658 15.5273C89.1252 16.8164 89.0548 18.0703 89.0548 19.2891C89.0548 20.4844 89.1252 21.7383 89.2658 23.0508C89.4064 24.3633 89.6525 25.6523 90.0041 26.918C90.3556 28.1836 90.8127 29.3906 91.3752 30.5391C91.9377 31.6875 92.6408 32.6953 93.4845 33.5625C94.3283 34.4297 95.3244 35.1211 96.4728 35.6367C97.6212 36.1523 98.9455 36.4102 100.445 36.4102C102.016 36.4102 103.387 36.1758 104.559 35.707C105.754 35.2383 106.785 34.6055 107.652 33.8086C108.52 32.9883 109.235 32.0391 109.797 30.9609C110.383 29.8594 110.84 28.6992 111.168 27.4805C111.52 26.2383 111.766 24.9609 111.906 23.6484C112.047 22.3125 112.117 21 112.117 19.7109ZM166.619 2.51953C165.494 2.51953 164.592 2.58984 163.912 2.73047C163.233 2.87109 162.705 3.14062 162.33 3.53906C161.979 3.91406 161.744 4.44141 161.627 5.12109C161.533 5.80078 161.487 6.67969 161.487 7.75781V38.0625H160.572L136.807 9.12891V31.2422C136.807 32.3672 136.854 33.2695 136.947 33.9492C137.065 34.6289 137.299 35.1562 137.651 35.5312C138.002 35.9062 138.518 36.1641 139.197 36.3047C139.877 36.4219 140.78 36.4805 141.905 36.4805V37.5H129.389V36.4805C130.514 36.4805 131.405 36.4102 132.061 36.2695C132.74 36.1289 133.256 35.8711 133.608 35.4961C133.959 35.0977 134.194 34.5586 134.311 33.8789C134.428 33.1992 134.487 32.3203 134.487 31.2422V6.24609C134.041 5.63672 133.619 5.10938 133.221 4.66406C132.846 4.19531 132.436 3.80859 131.99 3.50391C131.569 3.17578 131.076 2.92969 130.514 2.76562C129.951 2.60156 129.26 2.51953 128.44 2.51953V1.57031H137.229L159.201 28.5V7.75781C159.201 6.67969 159.143 5.80078 159.026 5.12109C158.908 4.44141 158.662 3.91406 158.287 3.53906C157.936 3.14062 157.42 2.87109 156.74 2.73047C156.084 2.58984 155.194 2.51953 154.069 2.51953V1.57031H166.619V2.51953ZM203.543 11.5195C203.543 13.4648 203.203 15.082 202.524 16.3711C201.867 17.6367 200.965 18.6445 199.817 19.3945C198.668 20.1445 197.321 20.6719 195.774 20.9766C194.25 21.2812 192.633 21.4336 190.922 21.4336C190.172 21.4336 189.422 21.4219 188.672 21.3984C187.946 21.375 187.16 21.293 186.317 21.1523V31.1719C186.317 32.2734 186.375 33.1758 186.492 33.8789C186.633 34.5586 186.879 35.0977 187.231 35.4961C187.606 35.8711 188.133 36.1289 188.813 36.2695C189.492 36.4102 190.395 36.4805 191.52 36.4805V37.5H176.192V36.4805C177.317 36.4805 178.207 36.4102 178.864 36.2695C179.543 36.1289 180.059 35.8711 180.41 35.4961C180.762 35.0977 180.985 34.5586 181.078 33.8789C181.172 33.1758 181.219 32.2734 181.219 31.1719V7.89844C181.219 6.77344 181.172 5.87109 181.078 5.19141C180.985 4.48828 180.762 3.9375 180.41 3.53906C180.082 3.14062 179.578 2.87109 178.899 2.73047C178.242 2.58984 177.34 2.51953 176.192 2.51953V1.57031H189.27C190.887 1.57031 192.539 1.71094 194.227 1.99219C195.938 2.27344 197.473 2.78906 198.832 3.53906C200.215 4.26562 201.34 5.27344 202.207 6.5625C203.098 7.85156 203.543 9.50391 203.543 11.5195ZM197.496 12.0117C197.496 10.8633 197.321 9.78516 196.969 8.77734C196.641 7.74609 196.149 6.85547 195.492 6.10547C194.86 5.35547 194.063 4.75781 193.102 4.3125C192.164 3.86719 191.086 3.64453 189.867 3.64453C189.282 3.64453 188.684 3.70312 188.075 3.82031C187.489 3.9375 186.903 4.05469 186.317 4.17188V19.3594C187.043 19.4766 187.77 19.5703 188.496 19.6406C189.223 19.6875 189.961 19.7109 190.711 19.7109C191.766 19.7109 192.703 19.5 193.524 19.0781C194.367 18.6328 195.082 18.0586 195.668 17.3555C196.254 16.6289 196.7 15.8086 197.004 14.8945C197.332 13.957 197.496 12.9961 197.496 12.0117ZM242.26 37.5H214.346V36.4805C215.19 36.4805 215.94 36.4336 216.596 36.3398C217.252 36.2227 217.791 36.0117 218.213 35.707C218.659 35.3789 218.998 34.9219 219.233 34.3359C219.467 33.75 219.584 32.9766 219.584 32.0156V7.05469C219.584 6.11719 219.467 5.35547 219.233 4.76953C218.998 4.18359 218.659 3.73828 218.213 3.43359C217.791 3.10547 217.252 2.88281 216.596 2.76562C215.94 2.64844 215.19 2.58984 214.346 2.58984V1.57031H229.955V2.58984C229.088 2.58984 228.327 2.64844 227.67 2.76562C227.014 2.88281 226.463 3.10547 226.018 3.43359C225.573 3.73828 225.233 4.18359 224.998 4.76953C224.764 5.35547 224.647 6.11719 224.647 7.05469V30.7148C224.647 31.6055 224.717 32.3438 224.858 32.9297C224.998 33.4922 225.233 33.9492 225.561 34.3008C225.913 34.6289 226.381 34.8633 226.967 35.0039C227.553 35.1211 228.291 35.1797 229.182 35.1797H232.768C234.502 35.1797 235.955 35.0859 237.127 34.8984C238.299 34.6875 239.307 34.3125 240.151 33.7734C241.018 33.2109 241.78 32.4375 242.436 31.4531C243.092 30.4453 243.76 29.1445 244.44 27.5508L245.354 27.6914L242.26 37.5ZM291.454 19.3594C291.454 21.9141 291.032 24.3398 290.188 26.6367C289.344 28.9336 288.149 30.9609 286.602 32.7188C285.079 34.4531 283.227 35.8359 281.047 36.8672C278.891 37.875 276.477 38.3789 273.805 38.3789C271.133 38.3789 268.708 37.875 266.528 36.8672C264.372 35.8594 262.52 34.5 260.973 32.7891C259.45 31.0547 258.278 29.0391 257.458 26.7422C256.637 24.4453 256.227 22.0078 256.227 19.4297C256.227 16.8281 256.661 14.4023 257.528 12.1523C258.418 9.87891 259.661 7.91016 261.254 6.24609C262.848 4.55859 264.747 3.23438 266.95 2.27344C269.153 1.28906 271.579 0.796875 274.227 0.796875C276.829 0.796875 279.184 1.30078 281.293 2.30859C283.403 3.29297 285.208 4.64062 286.708 6.35156C288.231 8.03906 289.403 10.0078 290.223 12.2578C291.043 14.5078 291.454 16.875 291.454 19.3594ZM285.407 19.7109C285.407 18.3984 285.336 17.0625 285.196 15.7031C285.079 14.3438 284.856 13.0312 284.528 11.7656C284.2 10.5 283.754 9.31641 283.192 8.21484C282.629 7.11328 281.915 6.15234 281.047 5.33203C280.18 4.51172 279.137 3.86719 277.918 3.39844C276.723 2.90625 275.305 2.66016 273.665 2.66016C272.165 2.66016 270.84 2.90625 269.692 3.39844C268.567 3.86719 267.583 4.51172 266.739 5.33203C265.895 6.15234 265.192 7.11328 264.629 8.21484C264.067 9.31641 263.61 10.4883 263.258 11.7305C262.93 12.9492 262.696 14.2148 262.555 15.5273C262.415 16.8164 262.344 18.0703 262.344 19.2891C262.344 20.4844 262.415 21.7383 262.555 23.0508C262.696 24.3633 262.942 25.6523 263.293 26.918C263.645 28.1836 264.102 29.3906 264.665 30.5391C265.227 31.6875 265.93 32.6953 266.774 33.5625C267.618 34.4297 268.614 35.1211 269.762 35.6367C270.911 36.1523 272.235 36.4102 273.735 36.4102C275.305 36.4102 276.676 36.1758 277.848 35.707C279.043 35.2383 280.075 34.6055 280.942 33.8086C281.809 32.9883 282.524 32.0391 283.086 30.9609C283.672 29.8594 284.129 28.6992 284.458 27.4805C284.809 26.2383 285.055 24.9609 285.196 23.6484C285.336 22.3125 285.407 21 285.407 19.7109ZM332.104 10.0078C331.893 7.96875 331.272 6.43359 330.241 5.40234C329.21 4.34766 327.628 3.82031 325.495 3.82031H320.467V31.2422C320.467 32.3438 320.514 33.2344 320.608 33.9141C320.702 34.5938 320.924 35.1328 321.276 35.5312C321.628 35.9062 322.131 36.1641 322.788 36.3047C323.467 36.4219 324.37 36.4805 325.495 36.4805V37.5H310.307V36.4805C311.432 36.4805 312.323 36.4102 312.979 36.2695C313.635 36.1289 314.139 35.8711 314.491 35.4961C314.842 35.0977 315.065 34.5586 315.159 33.8789C315.276 33.1992 315.335 32.3203 315.335 31.2422V3.82031H311.01C309.885 3.82031 308.901 3.92578 308.057 4.13672C307.213 4.32422 306.499 4.65234 305.913 5.12109C305.35 5.58984 304.905 6.22266 304.577 7.01953C304.272 7.81641 304.073 8.8125 303.979 10.0078H302.749L303.1 1.57031H332.913L333.264 10.0078H332.104Z" fill="black" fill-opacity="0.2"/>
<defs>
<linearGradient id="paint0_linear_7_16" x1="-1.00001" y1="19" x2="325.589" y2="19" gradientUnits="userSpaceOnUse">
<stop stop-color="#F9F295" stop-opacity="0.46"/>
<stop offset="0.333333" stop-color="#E0AA3E" stop-opacity="0.46"/>
<stop offset="0.66" stop-color="#F3C264"/>
<stop offset="1" stop-color="#EFC531" stop-opacity="0.32"/>
</linearGradient>
</defs>
</svg>
